<svg width="58" height="58" viewBox="0 0 58 58" fill="none" xmlns="http://www.w3.org/2000/svg">
  <path
    d="M55.6408 7.05176L29.3205 0.0791016C28.922 -0.0263672 28.5001 -0.0263672 28.09 0.0791016L1.78139 7.05176C0.7267 7.33301 -0.0115812 8.29395 0.000137537 9.38379C0.07045 18.7119 2.67201 27.9463 7.57045 36.29C6.25795 36.7002 5.01576 37.3682 3.93764 38.2588C-0.656113 42.044 -1.32408 48.8643 2.44936 53.4697C4.50014 55.9775 7.54701 57.419 10.7931 57.419C13.2775 57.419 15.7033 56.5518 17.6369 54.958C18.797 54.0088 19.6994 52.8604 20.3556 51.6065C22.5587 53.54 24.9142 55.3447 27.3869 57.0088C27.7853 57.2783 28.254 57.419 28.7228 57.419C29.1915 57.419 29.6603 57.2783 30.0587 57.0088C47.3087 45.3955 57.2814 28.04 57.422 9.38379C57.4337 8.29395 56.6954 7.33301 55.6408 7.05176ZM10.7814 52.6143C7.46498 52.6143 4.78139 49.9307 4.78139 46.6143C4.78139 43.2979 7.46498 40.6143 10.7814 40.6143C14.0978 40.6143 16.7814 43.2979 16.7814 46.6143C16.7814 49.9307 14.0978 52.6143 10.7814 52.6143ZM28.7111 52.1221C26.1564 50.3174 23.7658 48.3369 21.5509 46.2393C21.504 44.7158 21.129 43.1924 20.4259 41.7861L38.0744 27.2549C39.0939 26.4111 39.2345 24.9111 38.4025 23.8916C38.3908 23.8799 33.4103 18.3369 33.4103 18.3369C32.5314 17.3525 31.0197 17.2705 30.0353 18.1611C29.0509 19.04 28.9689 20.5518 29.8595 21.5361L33.1173 25.1572L30.1408 27.6065L26.7423 23.833C25.8634 22.8486 24.3517 22.7666 23.3673 23.6572C22.3829 24.5361 22.3009 26.0479 23.1915 27.0322L26.4494 30.6533L17.4142 38.0947C16.1369 37.0986 14.6486 36.4072 13.0665 36.0674C8.08607 28.4385 5.26186 19.8955 4.86342 11.2119L28.7345 4.88379L52.6056 11.2119C51.8556 27.0674 43.254 41.8213 28.7111 52.1221Z"
    fill="url(#paint0_linear_607_1767)" />
  <defs>
    <linearGradient id="paint0_linear_607_1767" x1="28.7111" y1="0" x2="28.7111" y2="57.419"
      gradientUnits="userSpaceOnUse">
      <stop stop-color="var(--color-primary-400)" />
      <stop offset="1" stop-color="var(--color-secondary-300)" />
    </linearGradient>
  </defs>
</svg>